<?xml version="1.0" standalone="no"?>
<!DOCTYPE svg PUBLIC "-//W3C//DTD SVG 20010904//EN"
 "http://www.w3.org/TR/2001/REC-SVG-20010904/DTD/svg10.dtd">
<svg version="1.0" xmlns="http://www.w3.org/2000/svg"
 width="583.000000pt" height="428.000000pt" viewBox="0 0 583.000000 428.000000"
 preserveAspectRatio="xMidYMid meet">

<g transform="translate(0.000000,428.000000) scale(0.100000,-0.100000)"
fill="#000000" stroke="none">
<path d="M2953 3810 c-119 -13 -227 -90 -281 -200 -24 -49 -27 -69 -34 -220
-8 -163 -8 -165 14 -182 28 -21 37 -9 31 41 -3 21 0 107 6 191 12 164 24 204
78 262 33 35 118 75 202 94 36 9 68 17 70 20 5 4 3 4 -86 -6z"/>
<path d="M2975 3718 c-80 -9 -133 -32 -172 -75 -36 -40 -76 -119 -68 -133 4
-6 2 -10 -4 -10 -5 0 -10 -8 -10 -17 0 -10 -2 -73 -4 -140 -3 -114 -2 -123 15
-123 10 0 21 0 26 0 4 0 10 53 13 117 3 65 11 136 17 159 30 104 97 153 221
161 105 8 173 -9 224 -56 61 -55 69 -85 76 -261 6 -146 7 -155 26 -155 16 0
21 9 26 50 4 28 5 91 3 140 -4 107 11 149 21 59 4 -32 9 -67 12 -78 3 -12 1
-16 -6 -12 -6 4 -11 0 -11 -9 0 -9 3 -14 8 -12 4 3 8 -25 10 -61 4 -70 7 -82
23 -82 11 0 11 208 0 268 -5 23 -5 42 0 42 4 0 10 -10 12 -22 4 -20 4 -19 6 5
1 26 -1 27 -44 27 -43 0 -44 1 -51 38 -4 20 -15 48 -25 61 -11 13 -19 30 -19
37 0 7 -15 20 -32 30 -18 9 -45 23 -61 31 -36 19 -156 30 -232 21z"/>
<path d="M3412 3556 c5 -22 11 -42 13 -44 8 -8 24 9 20 21 -2 7 -6 24 -9 38
-3 14 -12 26 -19 26 -11 0 -12 -9 -5 -41z"/>
<path d="M1520 3553 c-84 -3 -127 -8 -132 -16 -17 -27 -7 -48 29 -64 32 -13
74 -15 263 -11 126 3 236 10 251 16 35 14 44 40 23 63 -18 20 -57 21 -434 12z"/>
<path d="M3380 3526 c0 -9 5 -16 10 -16 6 0 10 4 10 9 0 6 -4 13 -10 16 -5 3
-10 -1 -10 -9z"/>
<path d="M960 3422 c0 -13 8 -34 18 -45 14 -19 26 -22 70 -19 43 2 59 8 78 29
34 37 30 47 -5 12 -45 -44 -116 -36 -145 18 -15 27 -15 27 -16 5z"/>
<path d="M787 3383 c-26 -151 109 -306 268 -306 74 0 140 27 190 79 43 44 60
76 69 129 6 40 6 40 -14 -11 -22 -55 -80 -121 -80 -91 0 23 -9 21 -31 -7 -23
-30 -111 -51 -173 -42 -49 8 -106 40 -106 60 0 8 -5 18 -12 22 -6 4 -8 3 -5
-2 9 -16 -8 -35 -26 -28 -28 10 -61 94 -67 169 -5 68 -6 69 -13 28z"/>
<path d="M1392 3388 c-19 -19 -14 -46 11 -63 19 -12 65 -15 248 -16 123 -1
241 2 262 6 44 9 63 35 47 65 -10 19 -21 20 -283 20 -199 0 -276 -3 -285 -12z"/>
<path d="M4682 3368 c-17 -17 -15 -33 3 -18 8 7 54 15 103 18 l87 4 34 -33 33
-34 -23 37 -24 38 -100 0 c-65 0 -105 -4 -113 -12z"/>
<path d="M4595 3257 c-22 -22 -55 -47 -72 -55 -18 -9 -33 -20 -33 -24 0 -16
77 33 116 73 21 21 36 40 33 42 -2 2 -22 -14 -44 -36z"/>
<path d="M1735 3270 c-26 -17 -47 -20 -170 -20 -150 0 -185 -10 -185 -50 0
-35 49 -50 164 -50 l106 0 -3 -62 -2 -62 38 -1 c30 -2 37 2 37 17 0 11 -5 29
-11 40 -9 17 -13 18 -20 7 -6 -9 -8 -4 -6 18 1 17 4 29 6 27 5 -4 50 66 51 79
1 21 -20 2 -33 -30 l-16 -38 0 31 c-1 44 32 81 87 98 41 13 43 15 17 15 -16 1
-43 -8 -60 -19z"/>
<path d="M5025 3228 c11 -6 32 -20 48 -30 22 -16 27 -16 27 -5 0 8 -18 22 -40
31 -46 18 -64 21 -35 4z"/>
<path d="M4416 3167 c3 -10 9 -15 12 -12 3 3 0 11 -7 18 -10 9 -11 8 -5 -6z"/>
<path d="M2002 3055 c-10 -22 -9 -25 8 -25 13 0 20 7 20 19 0 30 -16 33 -28 6z"/>
<path d="M5091 2993 c-10 -26 -10 -27 4 -9 8 11 15 23 15 28 0 15 -7 8 -19
-19z"/>
<path d="M1508 2993 c6 -2 18 -2 25 0 6 3 1 5 -13 5 -14 0 -19 -2 -12 -5z"/>
<path d="M1573 2993 c15 -4 17 -19 17 -134 0 -150 8 -178 70 -238 45 -44 115
-71 181 -71 54 0 132 28 175 63 61 50 74 92 74 240 0 114 -2 127 -17 128 -76
5 -91 3 -82 -8 7 -8 4 -13 -10 -18 -12 -4 -18 -12 -14 -21 6 -17 -27 -20 -44
-3 -12 12 -108 16 -156 7 -15 -2 -35 -15 -43 -26 -20 -29 -42 -28 -40 1 1 18
6 23 23 21 29 -3 51 22 34 39 -10 9 -11 8 -5 -8 7 -18 6 -19 -9 -6 -10 8 -20
11 -24 7 -3 -3 -1 -6 6 -6 7 0 9 -5 6 -10 -5 -8 -11 -7 -21 1 -7 6 -12 15 -9
19 6 10 -39 22 -58 14 -8 -3 -18 -1 -22 5 -3 6 -16 10 -28 10 -17 -1 -18 -2
-4 -6z m422 -71 c0 -9 6 -16 13 -14 6 1 12 -7 12 -18 0 -11 -4 -20 -8 -20 -12
0 -31 41 -30 63 2 21 13 12 13 -11z m-62 -8 c17 -9 35 -22 39 -28 5 -6 8 -7 8
-1 1 6 7 -5 16 -24 11 -26 17 -32 26 -23 7 7 17 12 23 12 5 0 3 -5 -6 -10 -11
-7 -17 -24 -17 -56 -2 -64 -9 -82 -42 -99 -34 -17 -73 -19 -101 -5 -21 12 -51
64 -42 74 11 11 23 7 23 -8 0 -25 51 -58 80 -51 28 7 50 31 50 54 0 10 -5 6
-13 -9 -23 -45 -85 -39 -104 10 -8 21 -18 30 -33 30 -20 0 -22 -4 -17 -37 7
-43 44 -81 88 -90 40 -8 37 -23 -5 -23 -78 0 -146 110 -99 162 27 30 61 23 85
-18 15 -25 26 -34 42 -32 42 6 11 92 -42 117 -33 16 -70 13 -103 -6 -38 -23
-53 -63 -46 -123 7 -54 -7 -68 -23 -24 -20 50 -12 101 20 137 38 44 80 61 125
53 42 -8 93 -49 111 -91 12 -27 13 -28 14 -6 0 14 -15 38 -38 61 -63 63 -154
66 -211 8 -17 -17 -34 -47 -37 -65 -9 -49 1 -122 20 -141 14 -15 18 -15 31 -1
13 12 14 21 5 43 -36 96 43 176 134 135 30 -14 54 -65 38 -81 -8 -8 -15 0 -26
25 -18 44 -56 58 -95 35 -24 -13 -26 -19 -26 -92 0 -87 -11 -104 -58 -92 -17
4 -31 19 -43 46 -16 35 -22 40 -53 42 l-36 1 38 4 c35 4 37 6 37 40 0 66 51
138 115 161 38 14 105 7 148 -14z m137 -187 c9 -3 4 -6 -12 -6 -21 -1 -26 3
-21 15 3 9 9 11 12 6 3 -5 13 -12 21 -15z m-217 -96 c27 -14 36 -31 17 -31
-22 0 -70 31 -64 41 3 6 9 9 12 7 4 -2 19 -10 35 -17z"/>
<path d="M2520 2987 c0 -9 -5 -16 -11 -14 -13 2 -13 -3 -24 -145 l-8 -98 32 0
c29 0 37 9 32 34 -1 6 -4 59 -6 119 -2 60 -6 111 -9 114 -3 4 -6 -1 -6 -10z"/>
<path d="M4506 2967 c3 -10 9 -15 12 -12 3 3 0 11 -7 18 -10 9 -11 8 -5 -6z"/>
<path d="M3009 2931 c-50 -16 -71 -33 -91 -77 -25 -57 -17 -94 28 -144 32 -35
35 -44 40 -121 7 -113 6 -111 61 -107 l48 3 5 93 c5 85 7 94 32 115 36 30 48
58 48 111 0 36 -6 52 -31 80 -17 20 -47 40 -67 46 -41 11 -38 11 -73 1z"/>
<path d="M5040 2900 c-12 -16 -19 -30 -16 -30 2 0 14 14 26 30 12 17 19 30 16
30 -2 0 -14 -13 -26 -30z"/>
<path d="M4561 2884 c20 -31 80 -97 84 -93 1 2 -20 29 -47 59 -28 30 -44 46
-37 34z"/>
<path d="M4940 2776 l-44 -51 49 47 c27 26 47 49 45 51 -3 2 -25 -20 -50 -47z"/>
<path d="M4680 2756 c0 -2 8 -10 18 -17 15 -13 16 -12 3 4 -13 16 -21 21 -21
13z"/>
<path d="M2480 2569 c0 -82 5 -169 11 -193 12 -48 47 -91 87 -109 18 -7 160
-12 437 -14 422 -4 502 2 513 36 4 11 -1 12 -19 6 -39 -13 -356 -17 -636 -8
-235 8 -264 11 -282 27 -32 29 -41 80 -44 250 l-2 156 -32 0 -33 0 0 -151z"/>
<path d="M4745 2694 c42 -34 73 -41 93 -19 16 16 16 17 -7 5 -21 -11 -30 -10
-58 5 -18 10 -33 22 -33 27 0 4 -6 8 -12 8 -7 -1 1 -12 17 -26z"/>
<path d="M1110 2271 c-474 -7 -467 -6 -533 -66 -65 -61 -62 -29 -62 -685 l0
-596 25 -46 24 -47 -24 -22 c-14 -12 -40 -28 -59 -36 -31 -13 -33 -17 -27 -51
3 -20 6 -61 6 -89 0 -52 0 -53 31 -53 21 0 40 -10 61 -30 33 -33 59 -37 102
-15 43 23 61 19 77 -17 14 -32 15 -33 69 -30 30 1 163 15 295 30 212 23 279
26 571 27 300 0 330 1 327 16 -4 13 6 17 54 22 33 3 87 18 125 36 90 41 126
41 172 -3 20 -18 36 -40 36 -48 0 -22 -44 -38 -108 -39 -89 -1 -110 -15 -35
-24 34 -4 67 -4 74 1 6 4 37 10 68 13 l56 6 93 190 c119 243 123 255 90 326
-13 30 -43 74 -66 99 -23 24 -42 48 -42 53 0 4 -4 6 -9 3 -8 -5 -36 42 -33 57
1 4 -2 7 -8 7 -5 0 -15 10 -21 22 -10 18 -8 24 7 35 10 7 13 13 8 13 -6 0 -15
-5 -21 -11 -8 -8 -20 -1 -44 25 -18 20 -38 36 -46 36 -7 0 -13 3 -13 8 0 4
-10 12 -22 17 -27 12 -37 45 -14 45 21 0 20 8 -4 48 -22 36 -33 38 -110 17
-74 -20 -80 -19 -47 10 15 14 52 32 82 41 101 29 155 102 155 208 0 66 -30
115 -80 132 -95 32 -117 36 -163 36 l-49 0 6 69 c12 115 -23 195 -104 235 -41
21 -63 23 -240 27 -107 2 -391 1 -630 -2z m-359 -117 c10 -13 10 -17 0 -24
-18 -10 -51 -1 -51 15 0 12 13 22 31 24 4 1 12 -6 20 -15z m139 -3 c14 -27 3
-50 -27 -57 -34 -9 -58 16 -49 50 5 21 12 26 36 26 19 0 33 -7 40 -19z m128
-18 c3 -28 0 -33 -24 -39 -31 -8 -57 5 -62 30 -6 27 18 47 52 44 27 -3 31 -7
34 -35z m149 -340 c-2 -21 -4 -6 -4 32 0 39 2 55 4 38 2 -18 2 -50 0 -70z
m-182 39 c6 -4 23 -26 38 -49 19 -30 45 -52 87 -73 65 -33 71 -46 46 -97 -7
-15 -26 -55 -42 -88 -36 -75 -63 -111 -141 -191 -82 -84 -91 -84 -186 9 -65
63 -82 87 -135 197 -33 68 -58 128 -56 132 3 5 27 19 53 33 45 22 101 75 101
95 0 5 7 16 16 24 12 12 37 16 112 16 53 0 102 -4 107 -8z m1094 -9 c-3 -21 2
-33 15 -33 9 0 16 -17 21 -51 8 -56 26 -71 55 -44 21 19 50 14 50 -9 0 -27
-12 -46 -29 -46 -10 0 -26 -8 -37 -19 -32 -29 -60 -41 -98 -41 -39 0 -67 28
-59 60 3 12 -3 22 -19 30 -12 7 -24 14 -26 15 -2 2 5 20 16 42 10 21 22 51 26
66 6 24 9 27 22 16 13 -10 13 -14 -1 -29 -15 -16 -14 -18 12 -23 33 -6 41 -1
25 15 -8 8 -7 17 5 34 15 24 24 30 22 17z m-495 -89 c19 -19 20 -25 3 -48 -11
-15 -32 -20 -105 -24 -112 -6 -140 0 -148 33 -12 47 8 55 127 55 84 0 111 -3
123 -16z m666 -26 c0 -26 -2 -29 -15 -18 -8 7 -15 23 -15 36 0 17 4 22 15 18
9 -4 15 -19 15 -36z m-386 -114 c46 -45 0 -72 -125 -75 -79 -1 -101 2 -124 17
-37 24 -106 25 -132 2 -25 -23 -125 -25 -143 -3 -18 22 -4 63 23 68 12 2 126
5 254 6 198 1 234 -1 247 -15z m-272 -73 c25 -9 38 -40 58 -131 16 -75 13
-120 -8 -120 -13 0 -23 15 -35 53 -14 45 -21 53 -39 52 -20 -2 -23 -7 -23 -46
0 -24 4 -57 8 -72 7 -24 4 -30 -13 -34 -11 -3 -20 -9 -20 -14 0 -5 -4 -9 -10
-9 -5 0 -10 9 -10 20 0 11 -5 20 -10 20 -6 0 -10 -7 -8 -16 2 -10 -3 -19 -9
-21 -7 -3 -13 2 -13 11 0 9 -4 16 -10 16 -5 0 -7 -7 -4 -15 4 -8 2 -15 -4 -15
-6 0 -18 20 -28 45 l-17 46 -23 -22 c-24 -23 -44 -19 -44 10 0 22 19 41 42 41
28 0 25 58 -3 62 -12 2 -27 11 -33 21 -18 29 4 52 55 55 26 2 47 10 53 19 9
17 82 52 108 53 9 0 27 -4 40 -9z m159 -61 c18 -10 28 -60 11 -60 -9 0 -44 36
-56 58 -9 15 17 16 45 2z m-657 -312 c22 -31 20 -74 -4 -98 -19 -19 -33 -20
-197 -20 -98 0 -183 4 -189 8 -16 10 -34 48 -34 71 0 11 10 29 22 41 20 19 34
20 204 20 178 0 183 -1 198 -22z m1280 -135 l37 -41 -38 -60 c-21 -33 -43 -68
-50 -78 -10 -16 -12 -6 -12 56 -1 92 9 184 19 173 4 -4 24 -27 44 -50z m-788
0 c17 -23 17 -28 -2 -47 -14 -14 -74 -23 -74 -12 0 13 43 76 52 76 6 0 17 -8
24 -17z m-513 -88 c15 -19 25 -40 21 -47 -4 -6 -3 -9 2 -6 5 3 17 -4 27 -14
20 -21 16 -24 -50 -31 -22 -3 -46 0 -52 6 -7 7 -15 6 -26 -3 -21 -17 -240 -26
-278 -11 -36 14 -54 53 -41 89 14 41 59 51 224 51 l145 1 28 -35z m-499 -139
c-3 -8 -13 -17 -22 -21 -13 -5 -13 -2 3 15 21 24 26 25 19 6z m162 -100 c10
-42 0 -70 -29 -84 -16 -8 -30 -12 -32 -10 -3 2 -7 30 -11 61 l-7 57 36 0 c30
0 38 -4 43 -24z"/>
<path d="M788 1758 l-23 -33 34 28 c28 23 41 27 96 27 60 0 64 -2 89 -35 15
-19 32 -35 39 -34 9 0 9 2 0 5 -7 3 -22 21 -33 40 l-22 34 -78 0 c-77 0 -79
-1 -102 -32z"/>
<path d="M703 1674 c-24 -14 -43 -31 -43 -37 0 -5 8 -3 18 6 10 10 23 17 29
17 5 0 18 9 28 20 23 26 19 25 -32 -6z"/>
<path d="M1049 1683 c13 -10 34 -28 48 -41 20 -18 24 -19 21 -6 -2 10 -23 28
-48 41 -27 14 -35 17 -21 6z"/>
<path d="M2004 1739 c-10 -17 13 -36 27 -22 12 12 4 33 -11 33 -5 0 -12 -5
-16 -11z"/>
<path d="M4831 2024 c0 -11 3 -14 6 -6 3 7 2 16 -1 19 -3 4 -6 -2 -5 -13z"/>
<path d="M3903 1680 c0 -25 2 -35 4 -22 2 12 2 32 0 45 -2 12 -4 2 -4 -23z"/>
<path d="M2663 1323 l197 -3 0 -219 0 -218 25 -11 c16 -7 64 -10 132 -7 60 2
216 8 348 11 132 4 252 8 268 8 l27 1 0 217 0 217 48 4 c26 2 -243 3 -598 3
-355 0 -556 -2 -447 -3z m667 -12 c0 -23 -97 -28 -126 -6 -17 13 -12 14 54 15
39 0 72 -4 72 -9z"/>
<path d="M2908 813 c6 -2 18 -2 25 0 6 3 1 5 -13 5 -14 0 -19 -2 -12 -5z"/>
<path d="M2877 794 c-11 -32 2 -53 37 -62 17 -5 32 -16 34 -25 3 -14 -2 -16
-32 -11 -28 4 -36 2 -36 -10 0 -14 42 -16 379 -16 209 0 386 3 395 6 12 5 16
21 16 65 0 33 -4 59 -10 59 -5 0 -10 -4 -10 -10 0 -5 -15 -10 -34 -10 -19 0
-36 -5 -38 -10 -6 -19 -62 -19 -70 -1 -4 9 -7 -6 -8 -34 l-2 -50 -11 35 c-7
23 -12 29 -14 18 -5 -20 -41 -28 -123 -28 -30 0 -115 -2 -187 -6 -106 -4 -133
-2 -133 8 0 9 -3 9 -11 -2 -7 -11 -8 -4 -4 25 5 35 4 37 -7 22 -37 -52 -37
-53 -47 -37 -5 8 -8 28 -5 45 4 27 4 28 -6 7 -15 -35 -53 -26 -60 13 -6 27 -7
28 -13 9z"/>
<path d="M3760 727 c0 -35 5 -61 15 -70 16 -16 345 -25 1156 -29 464 -3 469
-3 469 44 0 23 -18 42 -45 46 -11 2 -22 7 -25 10 -3 4 -99 5 -215 2 -115 -3
-263 -3 -328 0 -112 5 -117 4 -118 -15 0 -14 -2 -16 -6 -5 -3 8 -10 18 -16 21
-5 4 -183 8 -396 9 -456 3 -476 4 -476 18 0 5 -3 14 -7 18 -5 4 -8 -18 -8 -49z"/>
<path d="M495 519 l-40 -6 47 -2 c26 0 49 3 52 7 6 10 -3 10 -59 1z"/>
<path d="M418 503 c7 -3 16 -2 19 1 4 3 -2 6 -13 5 -11 0 -14 -3 -6 -6z"/>
</g>
</svg>
